#N canvas 387 131 728 366 10;
#X obj 343 54 inlet;
#X text 388 49 Needs the prefix that relates to each patch;
#X obj 258 52 inlet;
#X text 164 52 The msg itself;
#X obj 157 311 outlet;
#X obj 211 172 route /synth_midi_1;
#X obj 270 81 list trim;
#X obj 531 137 route /synth;
#X obj 390 136 route /synth_ADSR;
#X obj 31 120 route /synth_chord_or_melody;
#X obj 391 210 outlet;
#X obj 516 208 outlet;
#X obj 72 308 outlet;
#X text 66 330 first MIDI;
#X text 152 331 second MIDI;
#X text 19 21 if chord \, pass to 2nd midi if melody pass to first
midi;
#X text 74 136 chord 1: melody 0;
#X obj 72 167 select 0 1;
#X obj 72 277 spigot;
#X obj 158 279 spigot;
#X text 302 237 can output either /envelope or /env_drone;
#X obj 44 241 tgl 15 0 empty empty empty 17 7 0 10 -262144 -1 -1 1
1;
#X obj 123 238 tgl 15 0 empty empty empty 17 7 0 10 -262144 -1 -1 0
1;
#X msg 71 199 0;
#X msg 120 198 0;
#X obj 390 177 route /envelope;
#X obj 514 175 route /env_drone;
#X obj 182 84 print x1;
#X connect 2 0 6 0;
#X connect 2 0 27 0;
#X connect 5 0 19 0;
#X connect 5 0 18 0;
#X connect 6 0 5 0;
#X connect 6 0 9 0;
#X connect 8 0 25 0;
#X connect 8 0 26 0;
#X connect 9 0 17 0;
#X connect 17 0 23 0;
#X connect 17 0 21 0;
#X connect 17 1 22 0;
#X connect 17 1 24 0;
#X connect 18 0 12 0;
#X connect 19 0 4 0;
#X connect 21 0 18 1;
#X connect 22 0 19 1;
#X connect 23 0 22 0;
#X connect 24 0 21 0;
#X connect 25 0 10 0;
#X connect 26 0 11 0;
