#N canvas 114 39 996 655 10;
#N canvas 0 22 450 300 (subpatch) 0;
#X array adsr_arr_\$0 100 float 1;
#A 0 0 0 0 0 0 0 0 0 0 0 0 0 0 0 0 0 0 0 0 0 0 0 0 0 0 0 0 0 0 0 0
0 0 0 0 0 0 0 0 0 0 0 0 0 0 0 0 0 0 0 0 0 0 0 0 0 0 0 0 0 0 0 0 0 0
0 0 0 0 0 0 0 0 0 0 0 0 0 0 0 0 0 0 0 0 0 0 0 0 0 0 0 0 0 0 0 0 0 0
0;
#X coords 0 1 99 -1 140 60 1 0 0;
#X restore 115 117 graph;
#X obj 70 189 vradio 15 0 0 2 type_snd_\$0 type_rcv_\$0 empty 0 -8
0 10 -262144 -1 -1 1;
#X text 93 188 Drone;
#X text 92 205 Envelope;
#X obj 87 266 r type_snd_\$0;
#X obj 290 602 tabwrite~ adsr_arr_\$0;
#X obj 221 602 outlet~;
#X obj 301 307 tgl 20 0 empty empty empty 17 7 0 10 -228856 -1 -1 0
1;
#X text 323 309 gate;
#X obj 301 357 sig~;
#X obj 162 206 bng 15 250 50 0 empty empty empty 17 7 0 10 -262144
-1 -1;
#X obj 338 270 delay 1000;
#X obj 394 182 inlet;
#X floatatom 206 206 5 0 0 2 note_length - -;
#X obj 301 379 else/adsr~ 1000 500 0.5 1500, f 37;
#X obj 222 391 inlet~;
#X obj 271 424 *~;
#X obj 181 508 *~;
#X obj 87 300 sel 0 1;
#X msg 113 339 1;
#X msg 161 342 1;
#X msg 106 368 0;
#X msg 155 370 0;
#X text 320 432 This entangled part is to send a 0 to one path as we
are sending a one to the other;
#X obj 390 96 s type_rcv_\$0;
#X obj 390 65 loadbang;
#X obj 308 559 metro 100;
#X obj 307 524 loadbang;
#X floatatom 159 451 5 0 0 0 - - -;
#X floatatom 230 450 5 0 0 0 - - -;
#X obj 261 490 *~;
#X floatatom 33 317 5 0 0 0 - - -;
#X connect 4 0 18 0;
#X connect 7 0 9 0;
#X connect 9 0 14 0;
#X connect 10 0 11 0;
#X connect 10 0 7 0;
#X connect 11 0 7 0;
#X connect 12 0 13 0;
#X connect 13 0 11 1;
#X connect 14 0 16 1;
#X connect 15 0 17 0;
#X connect 15 0 16 0;
#X connect 16 0 30 0;
#X connect 17 0 5 0;
#X connect 17 0 6 0;
#X connect 18 0 19 0;
#X connect 18 0 21 0;
#X connect 18 1 20 0;
#X connect 18 1 22 0;
#X connect 19 0 28 0;
#X connect 20 0 29 0;
#X connect 21 0 29 0;
#X connect 22 0 28 0;
#X connect 25 0 24 0;
#X connect 26 0 5 0;
#X connect 27 0 26 0;
#X connect 28 0 17 1;
#X connect 29 0 30 1;
#X connect 30 0 5 0;
#X connect 30 0 6 0;
#X coords 0 -1 1 1 217 130 1 60 100;
