#N canvas 370 72 910 422 10;
#X text 369 23 Holds the currently active probabilities;
#X text 368 45 This patch will output the next table to be used for
probability;
#X text 33 44 outlet: a stream of MIDI pitches that adhere to the probability
tables;
#X text 33 18 inlet: note_number \, and beat speed;
#X obj 220 152 coll probabilities/lab3.coll;
#C restore;
#X obj 285 81 loadbang;
#X text 412 153 The output of coll will be a list;
#X obj 206 77 inlet;
#X floatatom 103 287 5 0 0 0 - - val, f 5;
#X obj 103 217 metro 200;
#X obj 103 190 tgl 15 0 empty empty empty 17 7 0 10 -262144 -1 -1 1
1;
#X obj 74 243 list-abs/list-wrandom;
#X obj 119 269 bng 15 250 50 0 empty empty empty 17 7 0 10 -262144
-1 -1;
#X obj 102 334 hradio 24 0 0 12 empty val state 0 -8 1 10 -262144 -1
-1 6;
#X obj 237 190 print coll;
#X msg 109 83 length;
#X obj 102 378 outlet;
#X floatatom 206 105 5 0 0 0 - - -, f 5;
#X connect 4 0 14 0;
#X connect 4 0 11 1;
#X connect 5 0 4 0;
#X connect 7 0 17 0;
#X connect 9 0 11 0;
#X connect 10 0 9 0;
#X connect 11 0 8 0;
#X connect 11 0 12 0;
#X connect 13 0 16 0;
#X connect 15 0 4 0;
#X connect 17 0 4 0;
