#N canvas 398 85 882 608 10;
#X text 369 23 Holds the currently active probabilities;
#X text 368 45 This patch will output the next table to be used for
probability;
#X text 33 44 outlet: a stream of MIDI pitches that adhere to the probability
tables;
#X obj 189 81 loadbang;
#X text 412 153 The output of coll will be a list;
#X obj 378 77 inlet;
#X floatatom 103 287 5 0 0 0 - - val;
#X obj 78 128 metro 200;
#X obj 371 313 tgl 15 0 patch_on_snd empty empty 17 7 0 10 -262144
-1 -1 0 1;
#X obj 74 243 list-abs/list-wrandom;
#X obj 119 269 bng 15 250 50 0 empty empty empty 17 7 0 10 -262144
-1 -1;
#X obj 102 334 hradio 24 0 0 12 empty val state 0 -8 1 10 -262144 -1
-1 1;
#X obj 134 579 outlet;
#X floatatom 411 112 5 0 0 0 - - -;
#X obj 405 342 hsl 40 15 200 400 0 0 tempo_snd empty empty -2 -8 0
10 -262144 -1 -1 0 1;
#X obj -2 89 r patch_on_snd;
#X obj 100 90 r tempo_snd;
#X text 404 319 tempo;
#X floatatom 134 383 5 0 0 0 - - -;
#X floatatom 467 342 3 1 8 0 - - octave_snd;
#X text 457 319 octave;
#X obj 176 382 r octave_snd;
#X obj 176 411 * 12;
#X obj 134 440 +;
#X floatatom 134 470 5 0 0 0 - - -;
#X obj 441 235 loadbang;
#X msg 443 269 4;
#X floatatom 134 549 5 0 0 0 - - -;
#X floatatom 203 489 5 0 0 0 - - -;
#X obj 203 465 r tempo_snd;
#X obj 134 521 makenote 3.2;
#X text 134 600 Pitch;
#X obj 203 582 outlet;
#X text 203 603 Velocity;
#X floatatom 240 181 5 0 0 0 - - -;
#X obj 186 149 cyclone/coll probabilities/lab3.coll;
#C restore;
#X text 33 19 inlet: note_number;
#X connect 3 0 35 0;
#X connect 5 0 13 0;
#X connect 7 0 9 0;
#X connect 7 0 35 0;
#X connect 9 0 6 0;
#X connect 9 0 10 0;
#X connect 9 0 13 0;
#X connect 11 0 18 0;
#X connect 13 0 35 0;
#X connect 15 0 7 0;
#X connect 16 0 7 1;
#X connect 18 0 23 0;
#X connect 21 0 22 0;
#X connect 22 0 23 1;
#X connect 23 0 24 0;
#X connect 24 0 30 0;
#X connect 25 0 26 0;
#X connect 26 0 19 0;
#X connect 27 0 12 0;
#X connect 28 0 30 2;
#X connect 29 0 28 0;
#X connect 30 0 27 0;
#X connect 30 1 32 0;
#X connect 35 0 9 1;
#X connect 35 1 34 0;
#X coords 0 -1 1 1 400 60 1 100 310;
