#N canvas 101 23 1029 698 10;
#X obj 261 701 outlet;
#X obj 259 293 bng 15 250 50 0 empty empty empty 17 7 0 10 -262144
-1 -1;
#X obj 288 293 bng 15 250 50 0 empty empty empty 17 7 0 10 -262144
-1 -1;
#X obj 274 277 bng 15 250 50 0 empty empty empty 17 7 0 10 -262144
-1 -1;
#X obj 303 277 bng 15 250 50 0 empty empty empty 17 7 0 10 -262144
-1 -1;
#X obj 319 293 bng 15 250 50 0 empty empty empty 17 7 0 10 -262144
-1 -1;
#X obj 348 293 bng 15 250 50 0 empty empty empty 17 7 0 10 -262144
-1 -1;
#X obj 365 277 bng 15 250 50 0 empty empty empty 17 7 0 10 -262144
-1 -1;
#X text 594 8 Initialized to C5 \, But one up and one down toggle buttons
change that.;
#X floatatom 68 186 5 0 0 0 - - -, f 5;
#X symbolatom 494 302 3 0 0 0 - note_rcv_#0 note_snd_#0, f 3;
#X obj 180 43 inlet;
#X obj 317 45 inlet;
#X text 167 16 Midi Value;
#X text 310 18 Velocity;
#X obj 428 42 inlet;
#X text 421 15 Duration;
#X text 593 49 This patch does not concern sequencing. Inputs to change
midi values are on the hot inlets. It is MIDI out immediately.;
#X text 609 488 Note that the modulo 12 can be done differently such
that we get microtonals but I don't want to get into this now;
#X text 608 528 To do: add an output for flat \, natural \, or sharp
;
#X obj 16 102 lec_3_patches/note2octave+pclass;
#X floatatom 16 141 5 0 0 0 - - -, f 5;
#X floatatom 313 125 5 0 0 0 - pclass_rcv_#0 pclass_snd_#0, f 5;
#X obj 49 123 loadbang;
#X obj 153 335 loadbang;
#X msg 248 386 symbol C;
#X msg 289 410 symbol D;
#X msg 322 386 symbol E;
#X msg 372 409 symbol F;
#X msg 407 386 symbol G;
#X obj 451 409 symbol A;
#X msg 496 387 symbol B;
#X obj 382 292 bng 15 250 50 0 empty empty empty 17 7 0 10 -262144
-1 -1;
#X obj 398 276 bng 15 250 50 0 empty empty empty 17 7 0 10 -262144
-1 -1;
#X obj 415 292 bng 15 250 50 0 empty empty empty 17 7 0 10 -262144
-1 -1;
#X obj 431 276 bng 15 250 50 0 empty empty empty 17 7 0 10 -262144
-1 -1;
#X obj 448 292 bng 15 250 50 0 empty empty empty 17 7 0 10 -262144
-1 -1;
#X obj 275 188 sel 0 1 2 3 4 5 6 7 8 9 10 11;
#X msg 68 155 4;
#X msg 156 305 symbol ♮;
#X symbolatom 523 302 3 0 0 0 - symbol_rcv_#0 symbol_snd_#0, f 3;
#X msg 154 257 symbol ♯;
#X floatatom 495 277 5 1 8 0 - oct_num_rcv_#0 oct_num_snd_#0, f 5
;
#X text 480 255 Octave Number;
#X text 392 674 Velocity Output;
#X text 514 675 Duration Output;
#X obj 69 256 loadbang;
#X floatatom 171 234 5 0 0 0 - - -, f 5;
#X floatatom 169 282 5 0 0 0 - - -, f 5;
#X msg 240 519 1;
#X msg 273 519 2;
#X msg 307 518 3;
#X msg 208 520 0;
#X msg 339 519 4;
#X msg 371 519 5;
#X msg 403 519 6;
#X msg 436 519 7;
#X msg 468 519 8;
#X msg 498 519 9;
#X msg 530 519 10;
#X msg 562 519 11;
#X obj 226 669 mtof;
#X text 265 674 Frequency Output;
#X floatatom 366 570 5 0 0 0 - - -, f 5;
#X obj 202 614 lec_3_patches/octave+pclass2note;
#X floatatom 178 585 5 0 0 0 - - -, f 5;
#X floatatom 213 641 5 0 0 0 - - -, f 5;
#X obj 205 130 s pclass_rcv_\$0;
#X obj 68 212 s oct_num_rcv_\$0;
#X obj 52 343 s symbol_rcv_\$0;
#X obj 116 545 r oct_num_snd_\$0;
#X obj 381 491 s note_rcv_\$0;
#X obj 275 157 r pclass_snd_\$0;
#X connect 1 0 25 0;
#X connect 1 0 48 0;
#X connect 1 0 52 0;
#X connect 2 0 26 0;
#X connect 2 0 48 0;
#X connect 2 0 50 0;
#X connect 3 0 25 0;
#X connect 3 0 47 0;
#X connect 3 0 49 0;
#X connect 4 0 26 0;
#X connect 4 0 47 0;
#X connect 4 0 51 0;
#X connect 5 0 27 0;
#X connect 5 0 48 0;
#X connect 5 0 53 0;
#X connect 6 0 28 0;
#X connect 6 0 48 0;
#X connect 6 0 54 0;
#X connect 7 0 28 0;
#X connect 7 0 47 0;
#X connect 7 0 55 0;
#X connect 9 0 68 0;
#X connect 11 0 20 0;
#X connect 20 0 21 0;
#X connect 20 1 67 0;
#X connect 21 0 9 0;
#X connect 23 0 38 0;
#X connect 24 0 25 0;
#X connect 25 0 71 0;
#X connect 26 0 71 0;
#X connect 27 0 71 0;
#X connect 28 0 71 0;
#X connect 29 0 71 0;
#X connect 30 0 71 0;
#X connect 31 0 71 0;
#X connect 32 0 29 0;
#X connect 32 0 48 0;
#X connect 32 0 56 0;
#X connect 33 0 29 0;
#X connect 33 0 47 0;
#X connect 33 0 57 0;
#X connect 34 0 30 0;
#X connect 34 0 48 0;
#X connect 34 0 58 0;
#X connect 35 0 30 0;
#X connect 35 0 47 0;
#X connect 35 0 59 0;
#X connect 36 0 31 0;
#X connect 36 0 48 0;
#X connect 36 0 60 0;
#X connect 37 0 1 0;
#X connect 37 1 3 0;
#X connect 37 2 2 0;
#X connect 37 3 4 0;
#X connect 37 4 5 0;
#X connect 37 5 6 0;
#X connect 37 6 7 0;
#X connect 37 7 32 0;
#X connect 37 8 33 0;
#X connect 37 9 34 0;
#X connect 37 10 35 0;
#X connect 37 11 36 0;
#X connect 38 0 9 0;
#X connect 39 0 69 0;
#X connect 41 0 69 0;
#X connect 46 0 39 0;
#X connect 47 0 41 0;
#X connect 48 0 39 0;
#X connect 49 0 63 0;
#X connect 50 0 63 0;
#X connect 51 0 63 0;
#X connect 52 0 63 0;
#X connect 53 0 63 0;
#X connect 54 0 63 0;
#X connect 55 0 63 0;
#X connect 56 0 63 0;
#X connect 57 0 63 0;
#X connect 58 0 63 0;
#X connect 59 0 63 0;
#X connect 60 0 63 0;
#X connect 61 0 0 0;
#X connect 63 0 64 1;
#X connect 64 0 66 0;
#X connect 65 0 64 0;
#X connect 66 0 61 0;
#X connect 70 0 65 0;
#X connect 72 0 37 0;
#X coords 0 -1 1 1 350 100 1 252 240;
