#N canvas 101 23 1029 698 10;
#X obj 261 701 outlet;
#X obj 259 293 bng 15 250 50 0 empty empty empty 17 7 0 10 -262144
-1 -1;
#X obj 288 293 bng 15 250 50 0 empty empty empty 17 7 0 10 -262144
-1 -1;
#X obj 274 277 bng 15 250 50 0 empty empty empty 17 7 0 10 -262144
-1 -1;
#X obj 303 277 bng 15 250 50 0 empty empty empty 17 7 0 10 -262144
-1 -1;
#X obj 319 293 bng 15 250 50 0 empty empty empty 17 7 0 10 -262144
-1 -1;
#X obj 348 293 bng 15 250 50 0 empty empty empty 17 7 0 10 -262144
-1 -1;
#X obj 365 277 bng 15 250 50 0 empty empty empty 17 7 0 10 -262144
-1 -1;
#X obj 544 254 bng 15 250 50 0 empty empty empty 17 7 0 10 -262144
-1 -1;
#X obj 545 277 bng 15 250 50 0 empty empty empty 17 7 0 10 -262144
-1 -1;
#X text 594 8 Initialized to C5 \, But one up and one down toggle buttons
change that.;
#X floatatom 68 186 5 0 0 0 - - -, f 5;
#X symbolatom 508 307 3 0 0 0 - note_rcv note_snd, f 3;
#X obj 180 43 inlet;
#X obj 317 45 inlet;
#X text 167 16 Midi Value;
#X text 310 18 Velocity;
#X obj 428 42 inlet;
#X text 421 15 Duration;
#X text 593 49 This patch does not concern sequencing. Inputs to change
midi values are on the hot inlets. It is MIDI out immediately.;
#X text 609 488 Note that the modulo 12 can be done differently such
that we get microtonals but I don't want to get into this now;
#X text 608 528 To do: add an output for flat \, natural \, or sharp
;
#X obj 16 102 lec_3_patches/note2octave+pclass;
#X floatatom 16 141 5 0 0 0 - - -, f 5;
#X floatatom 313 125 5 0 0 0 - pclass_rcv pclass_snd, f 5;
#X obj 49 123 loadbang;
#X obj 153 335 loadbang;
#X obj 882 224 table note;
#X obj 881 256 table accidental;
#X msg 248 386 symbol C;
#X msg 289 410 symbol D;
#X msg 322 386 symbol E;
#X msg 372 409 symbol F;
#X msg 407 386 symbol G;
#X obj 451 409 symbol A;
#X msg 496 387 symbol B;
#X obj 382 292 bng 15 250 50 0 empty empty empty 17 7 0 10 -262144
-1 -1;
#X obj 398 276 bng 15 250 50 0 empty empty empty 17 7 0 10 -262144
-1 -1;
#X obj 415 292 bng 15 250 50 0 empty empty empty 17 7 0 10 -262144
-1 -1;
#X obj 431 276 bng 15 250 50 0 empty empty empty 17 7 0 10 -262144
-1 -1;
#X obj 448 292 bng 15 250 50 0 empty empty empty 17 7 0 10 -262144
-1 -1;
#X text 477 253 up octave;
#X text 470 276 down octave;
#X obj 275 188 sel 0 1 2 3 4 5 6 7 8 9 10 11;
#X obj 381 491 s note_rcv;
#X msg 68 155 4;
#X msg 156 305 symbol ♮;
#X obj 58 344 s symbol_rcv;
#X symbolatom 537 307 3 0 0 0 - symbol_rcv symbol_snd, f 3;
#X msg 154 257 symbol ♯;
#X floatatom 570 265 5 0 0 0 - oct_num_rcv oct_num_snd, f 5;
#X text 609 264 Octave Number;
#X obj 68 212 s oct_num_rcv;
#X obj 116 545 r oct_num_snd;
#X text 392 674 Velocity Output;
#X text 514 675 Duration Output;
#X obj 69 256 loadbang;
#X obj 275 157 r pclass_snd;
#X floatatom 171 234 5 0 0 0 - - -, f 5;
#X floatatom 169 282 5 0 0 0 - - -, f 5;
#X msg 240 519 1;
#X msg 273 519 2;
#X msg 307 518 3;
#X msg 208 520 0;
#X msg 339 519 4;
#X msg 371 519 5;
#X msg 403 519 6;
#X msg 436 519 7;
#X msg 468 519 8;
#X msg 498 519 9;
#X msg 530 519 10;
#X msg 562 519 11;
#X obj 205 130 s pclass_rcv;
#X obj 226 669 mtof;
#X text 265 674 Frequency Output;
#X floatatom 366 570 5 0 0 0 - - -, f 5;
#X obj 202 614 lec_3_patches/octave+pclass2note;
#X floatatom 178 585 5 0 0 0 - - -, f 5;
#X floatatom 213 641 5 0 0 0 - - -, f 5;
#X connect 1 0 29 0;
#X connect 1 0 59 0;
#X connect 1 0 63 0;
#X connect 2 0 30 0;
#X connect 2 0 59 0;
#X connect 2 0 61 0;
#X connect 3 0 29 0;
#X connect 3 0 58 0;
#X connect 3 0 60 0;
#X connect 4 0 30 0;
#X connect 4 0 58 0;
#X connect 4 0 62 0;
#X connect 5 0 31 0;
#X connect 5 0 59 0;
#X connect 5 0 64 0;
#X connect 6 0 32 0;
#X connect 6 0 59 0;
#X connect 6 0 65 0;
#X connect 7 0 32 0;
#X connect 7 0 58 0;
#X connect 7 0 66 0;
#X connect 11 0 52 0;
#X connect 13 0 22 0;
#X connect 22 0 23 0;
#X connect 22 1 72 0;
#X connect 23 0 11 0;
#X connect 25 0 45 0;
#X connect 26 0 29 0;
#X connect 29 0 44 0;
#X connect 30 0 44 0;
#X connect 31 0 44 0;
#X connect 32 0 44 0;
#X connect 33 0 44 0;
#X connect 34 0 44 0;
#X connect 35 0 44 0;
#X connect 36 0 33 0;
#X connect 36 0 59 0;
#X connect 36 0 67 0;
#X connect 37 0 33 0;
#X connect 37 0 58 0;
#X connect 37 0 68 0;
#X connect 38 0 34 0;
#X connect 38 0 59 0;
#X connect 38 0 69 0;
#X connect 39 0 34 0;
#X connect 39 0 58 0;
#X connect 39 0 70 0;
#X connect 40 0 35 0;
#X connect 40 0 59 0;
#X connect 40 0 71 0;
#X connect 43 0 1 0;
#X connect 43 1 3 0;
#X connect 43 2 2 0;
#X connect 43 3 4 0;
#X connect 43 4 5 0;
#X connect 43 5 6 0;
#X connect 43 6 7 0;
#X connect 43 7 36 0;
#X connect 43 8 37 0;
#X connect 43 9 38 0;
#X connect 43 10 39 0;
#X connect 43 11 40 0;
#X connect 45 0 11 0;
#X connect 46 0 47 0;
#X connect 49 0 47 0;
#X connect 53 0 77 0;
#X connect 56 0 46 0;
#X connect 57 0 43 0;
#X connect 58 0 49 0;
#X connect 59 0 46 0;
#X connect 60 0 75 0;
#X connect 61 0 75 0;
#X connect 62 0 75 0;
#X connect 63 0 75 0;
#X connect 64 0 75 0;
#X connect 65 0 75 0;
#X connect 66 0 75 0;
#X connect 67 0 75 0;
#X connect 68 0 75 0;
#X connect 69 0 75 0;
#X connect 70 0 75 0;
#X connect 71 0 75 0;
#X connect 73 0 0 0;
#X connect 75 0 76 1;
#X connect 76 0 78 0;
#X connect 77 0 76 0;
#X connect 78 0 73 0;
#X coords 0 -1 1 1 450 120 1 252 229;
