#N canvas 35 25 1239 696 10;
#X obj 50 353 main_patch_additive;
#X obj 50 163 midi_2_freq_ampl;
#X floatatom 50 305 5 0 0 0 - - -, f 5;
#X floatatom 51 137 5 0 0 0 - - -, f 5;
#X obj 51 70 markov;
#X obj 551 162 midi_2_freq_ampl;
#X connect 1 0 2 0;
#X connect 2 0 0 0;
#X connect 3 0 1 0;
#X connect 4 0 3 0;
#X connect 5 0 0 2;
