#N canvas 0 23 1221 715 10;
#X obj 353 203 additive;
#X obj 116 -43 wave_gen;
#X obj 368 -44 wave_gen;
#X obj 625 -43 wave_gen;
#X obj 429 672 dac~;
#X obj 429 498 ADSR;
#X obj 676 462 hsl 128 15 1000 3000 0 0 empty empty note_length -2
-8 0 10 -262144 -1 -1 3500 1;
#X connect 0 0 5 0;
#X connect 1 0 0 0;
#X connect 2 0 0 1;
#X connect 3 0 0 2;
#X connect 5 0 4 0;
#X connect 5 0 4 1;
#X connect 6 0 5 1;
