#N canvas 311 23 1256 715 10;
#X obj 551 530 additive;
#X obj 480 263 wave_gen;
#X obj 731 264 wave_gen;
#X obj 987 264 wave_gen;
#X obj 703 878 dac~;
#X obj 703 704 ADSR;
#X obj 950 668 hsl 128 15 1000 3000 0 0 empty empty note_length -2
-8 0 10 -262144 -1 -1 0 1;
#X obj 479 103 midi_2_freq_ampl;
#X obj 479 211 7th_chord_gen;
#X obj 220 271 wave_gen;
#X obj 104 103 midi_2_freq_ampl;
#X msg 95 301 1;
#X obj 95 330 print x1;
#X obj 165 41 connections/local_receiver;
#X obj 185 71 print x2;
#X connect 0 0 5 0;
#X connect 1 0 0 0;
#X connect 2 0 0 1;
#X connect 3 0 0 2;
#X connect 5 0 4 0;
#X connect 5 0 4 1;
#X connect 6 0 5 1;
#X connect 7 0 8 0;
#X connect 8 0 1 0;
#X connect 8 1 2 0;
#X connect 8 2 3 0;
#X connect 9 0 0 3;
#X connect 10 0 9 0;
#X connect 11 0 12 0;
#X connect 13 0 14 0;
