#N canvas 0 23 1221 715 10;
#X obj 277 307 additive;
#X obj 40 61 wave_gen;
#X obj 292 60 wave_gen;
#X obj 549 61 wave_gen;
#X obj 520 593 *~;
#X obj 583 483 tgl 20 0 empty empty empty 17 7 0 10 -228856 -1 -1 0
1;
#X text 549 484 gate;
#X obj 583 533 sig~;
#X obj 521 671 dac~;
#X obj 596 402 bng 15 250 50 0 empty empty empty 17 7 0 10 -262144
-1 -1;
#X obj 609 429 delay 1000;
#X obj 665 341 inlet;
#X floatatom 665 375 5 0 0 0 - - -;
#X obj 583 555 else/adsr~ 1000 500 0.5 1500, f 37;
#X connect 0 0 4 0;
#X connect 1 0 0 0;
#X connect 2 0 0 1;
#X connect 3 0 0 2;
#X connect 4 0 8 0;
#X connect 4 0 8 1;
#X connect 5 0 7 0;
#X connect 7 0 13 0;
#X connect 9 0 10 0;
#X connect 9 0 5 0;
#X connect 10 0 5 0;
#X connect 11 0 12 0;
#X connect 12 0 10 1;
#X connect 13 0 4 1;
