#N canvas 301 104 876 614 12;
#N canvas 0 22 450 300 (subpatch) 0;
#X array squ_arr1_\$0 100 float 0;
#X coords 0 1 99 -1 200 140 1;
#X restore 473 53 graph;
#X text 453 181 -1;
#X text 459 42 1;
#X floatatom 61 87 5 0 0 0 - - -;
#X obj 116 116 * -1;
#X obj 60 193 phasor~;
#X obj 165 265 phasor~;
#X obj 93 476 *~ 0.7;
#X obj 93 353 -~ 1;
#X obj 92 326 +~;
#X text 76 12 3.5.1.1. square;
#X text 77 47 any fundamental;
#X text 394 490 www.pd-tutorial.com;
#X text 394 465 Johannes Kreidler;
#X obj 27 47 inlet;
#X text 340 365 dac removed \, inlets and outlets added;
#X obj 93 518 outlet~;
#X obj 143 456 tabwrite~ squ_arr1_\$0;
#X obj 158 384 loadbang;
#X obj 158 412 metro 100;
#X obj 351 57 vsl 15 50 0 1 0 0 empty empty empty 0 -9 0 10 -262144
-1 -1 0 1;
#X obj 301 34 bng 15 250 50 0 empty empty empty 17 7 0 10 -262144 -1
-1;
#X msg 193 153 0;
#X floatatom 295 315 5 0 0 0 - - -;
#X floatatom 312 191 5 0 0 0 - - -;
#X text 460 255 To have some form of wave consistency (meaning that
the same values for phase would give the same timbre) \, a bang needs
to be sent from the numeric slider to the 0 msg to the first phasor
;
#X obj 274 134 bng 15 250 50 0 empty empty empty 17 7 0 10 -262144
-1 -1;
#X text 369 65 Phase;
#X obj 352 14 inlet;
#X connect 3 0 4 0;
#X connect 3 0 5 0;
#X connect 4 0 6 0;
#X connect 5 0 9 0;
#X connect 6 0 9 1;
#X connect 7 0 16 0;
#X connect 8 0 7 0;
#X connect 8 0 17 0;
#X connect 9 0 8 0;
#X connect 14 0 3 0;
#X connect 18 0 19 0;
#X connect 19 0 17 0;
#X connect 20 0 24 0;
#X connect 20 0 26 0;
#X connect 21 0 22 0;
#X connect 21 0 20 0;
#X connect 22 0 5 1;
#X connect 24 0 6 1;
#X connect 26 0 22 0;
#X connect 28 0 20 0;
