#N canvas 457 104 677 614 12;
#X obj 232 250 bng 15 250 50 0 empty empty empty 0 -6 0 8 -262144 -1
-1;
#N canvas 0 22 450 300 (subpatch) 0;
#X array squ_arr1_\$0 100 float 0 black black;
#X coords 0 1 99 -1 200 140 1;
#X restore 401 68 graph;
#X text 381 196 -1;
#X text 387 57 1;
#X floatatom 61 87 5 0 0 0 - - -, f 5;
#X obj 116 116 * -1;
#X msg 188 119 0;
#X obj 58 159 phasor~;
#X obj 159 157 phasor~;
#X obj 97 347 *~ 0.7;
#X msg 237 119 0.5;
#X obj 97 224 -~ 1;
#X obj 96 197 +~;
#X text 76 12 3.5.1.1. square;
#X text 95 42 any fundamental;
#X text 185 78 phase synchronization;
#X text 256 249 graph;
#X text 394 490 www.pd-tutorial.com;
#X text 394 465 Johannes Kreidler;
#X obj 27 47 inlet;
#X text 340 365 dac removed \, inlets and outlets added;
#X obj 97 389 outlet~;
#X obj 12 12;
#X obj 12 37;
#X obj 12 12;
#X obj 12 37;
#X obj 12 62;
#X obj 219 90 tgl 15 1 empty empty empty 17 7 0 10 -262144 -1 -1 0
1;
#X obj 137 277 tabwrite~ squ_arr1_\$0;
#X connect 0 0 28 0;
#X connect 4 0 5 0;
#X connect 4 0 7 0;
#X connect 5 0 8 0;
#X connect 6 0 7 1;
#X connect 7 0 12 0;
#X connect 8 0 12 1;
#X connect 9 0 21 0;
#X connect 10 0 8 1;
#X connect 11 0 9 0;
#X connect 11 0 28 0;
#X connect 12 0 11 0;
#X connect 19 0 4 0;
#X connect 22 0 23 0;
#X connect 24 0 25 0;
#X connect 25 0 26 0;
#X connect 27 0 6 0;
#X connect 27 0 10 0;
