#N canvas 421 71 681 618 12;
#X obj 220 334 bng 15 250 50 0 empty empty empty 0 -6 0 8 -262144 -1
-1;
#N canvas 0 22 450 300 (subpatch) 0;
#X array tri_array1_\$0 100 float 0 black black;
#X coords 0 1 99 -1 200 140 1;
#X restore 402 68 graph;
#X text 381 196 -1;
#X text 387 57 1;
#X floatatom 100 69 5 0 0 0 - - -, f 5;
#X obj 116 116 * -1;
#X obj 59 159 phasor~;
#X obj 159 157 phasor~;
#X obj 59 199 *~ 2;
#X obj 58 226 -~ 1;
#X obj 57 254 clip~ 0 1;
#X obj 159 202 *~ 2;
#X obj 158 229 -~ 1;
#X obj 157 257 clip~ 0 1;
#X obj 105 308 +~;
#X obj 85 431 *~ 0.7;
#X text 76 12 triangle;
#X text 39 47 any fundamental;
#X text 191 98 phase synchronization;
#X text 244 333 graph;
#X text 404 472 www.pd-tutorial.com;
#X text 409 448 Johannes Kreidler;
#X obj 48 96 inlet;
#X msg 190 115 1;
#X obj 85 477 outlet~;
#X obj 125 361 tabwrite~ tri_array1_\$0;
#X connect 0 0 25 0;
#X connect 5 0 7 0;
#X connect 6 0 8 0;
#X connect 7 0 11 0;
#X connect 8 0 9 0;
#X connect 9 0 10 0;
#X connect 10 0 14 0;
#X connect 11 0 12 0;
#X connect 12 0 13 0;
#X connect 13 0 14 1;
#X connect 14 0 15 0;
#X connect 14 0 25 0;
#X connect 15 0 24 0;
#X connect 22 0 6 0;
#X connect 23 0 7 1;
#X connect 23 0 6 1;
