#N canvas 588 90 681 618 12;
#N canvas 0 23 450 300 (subpatch) 0;
#X array tri_array1_\$0 100 float 0;
#X coords 0 1 99 -1 200 140 1;
#X restore 488 66 graph;
#X text 381 196 -1;
#X text 473 55 1;
#X obj 149 175 * -1;
#X obj 42 224 phasor~;
#X obj 142 222 phasor~;
#X obj 42 264 *~ 2;
#X obj 41 291 -~ 1;
#X obj 40 319 clip~ 0 1;
#X obj 142 267 *~ 2;
#X obj 141 294 -~ 1;
#X obj 140 322 clip~ 0 1;
#X obj 88 373 +~;
#X text 76 12 triangle;
#X text 36 99 any fundamental;
#X text 194 28 phase synchronization;
#X text 404 472 www.pd-tutorial.com;
#X text 409 448 Johannes Kreidler;
#X obj 30 139 inlet;
#X obj 68 542 outlet~;
#X obj 108 426 tabwrite~ tri_array1_\$0;
#X obj 160 362 loadbang;
#X obj 160 387 metro 100;
#X obj 141 357 bng 15 250 50 0 empty empty empty 17 7 0 10 -262144
-1 -1;
#X msg 91 187 0;
#X obj 312 95 vsl 15 50 0 1 0 0 empty empty empty 0 -9 0 10 -262144
-1 -1 0 1;
#X obj 198 77 bng 15 250 50 0 empty empty empty 17 7 0 10 -262144 -1
-1;
#X floatatom 242 178 5 0 0 0 - - -;
#X obj 192 139 bng 15 250 50 0 empty empty empty 17 7 0 10 -262144
-1 -1;
#X text 330 111 Phase;
#X obj 313 60 inlet;
#X connect 3 0 5 0;
#X connect 4 0 6 0;
#X connect 5 0 9 0;
#X connect 6 0 7 0;
#X connect 7 0 8 0;
#X connect 8 0 12 0;
#X connect 9 0 10 0;
#X connect 10 0 11 0;
#X connect 11 0 12 1;
#X connect 12 0 20 0;
#X connect 12 0 19 0;
#X connect 18 0 4 0;
#X connect 18 0 3 0;
#X connect 21 0 22 0;
#X connect 22 0 20 0;
#X connect 23 0 22 0;
#X connect 24 0 4 1;
#X connect 25 0 27 0;
#X connect 25 0 28 0;
#X connect 26 0 25 0;
#X connect 26 0 24 0;
#X connect 27 0 5 1;
#X connect 28 0 24 0;
#X connect 30 0 25 0;
