#N canvas 465 82 573 567 16;
#X obj 297 335 i;
#X floatatom 297 388 5 0 0 0 - - -, f 5;
#X msg 164 251 0;
#X obj 297 415 % 8;
#X floatatom 297 443 5 0 0 0 - - -, f 5;
#X text 339 413 modulo operator;
#X obj 305 147 inlet;
#X obj 410 147 inlet;
#X text 296 118 increment;
#X text 405 118 decrement;
#X msg 218 154 bang;
#X msg 476 147 bang;
#X obj 356 336 + 1;
#X connect 0 0 1 0;
#X connect 0 0 12 0;
#X connect 1 0 3 0;
#X connect 2 0 0 0;
#X connect 3 0 4 0;
#X connect 11 0 0 0;
#X connect 12 0 0 0;
