#N canvas 556 170 433 194 12;
#X obj 14 11 inlet;
#X obj 51 171 outlet;
#X obj 66 11 inlet;
#X obj 16 60 * 12;
#X obj 52 122 +;
#X text 117 10 inputs the octave and pitch class [0-11];
#X connect 0 0 3 0;
#X connect 2 0 4 0;
#X connect 3 0 4 1;
#X connect 4 0 1 0;
