#N canvas 696 111 617 300 10;
#X obj 47 48 receive fromGUI;
#X obj 47 76 list trim;
#X text 45 21 Receives the Notes;
#X obj 82 124 route /c /csharp /d /dsharp /e /f /fsharp /g /gsharp
/a /asharp /b, f 66;
#X floatatom 82 163 5 0 0 0 - - -;
#X floatatom 128 164 5 0 0 0 - - -;
#X text 90 105 Send it across the network;
#X obj 83 271 send toNetwork;
#X text 92 239 send message straight to multicast on user-specified
port;
#X obj 10 254 print x1;
#X obj 15 171 print x2;
#X obj 80 209 list prepend /valueToNetwork;
#X connect 0 0 1 0;
#X connect 0 0 11 0;
#X connect 1 0 3 0;
#X connect 1 0 10 0;
#X connect 3 0 4 0;
#X connect 3 1 5 0;
#X connect 11 0 9 0;
#X connect 11 0 7 0;
