#N canvas 663 111 617 386 10;
#X obj 47 48 receive fromGUI;
#X obj 47 76 list trim;
#X text 45 21 Receives the Notes;
#X obj 82 124 route /c /csharp /d /dsharp /e /f /fsharp /g /gsharp
/a /asharp /b, f 66;
#X text 90 105 Send it across the network;
#X obj 179 311 send toNetwork;
#X text 188 279 send message straight to multicast on user-specified
port;
#X obj 106 294 print x1;
#X obj 176 249 list prepend /synth_midi_1;
#X msg 82 151 1;
#X msg 180 151 4;
#X msg 214 151 5;
#X msg 245 151 6;
#X msg 278 151 7;
#X msg 312 151 8;
#X msg 347 150 9;
#X msg 380 150 10;
#X msg 413 151 11;
#X msg 115 152 2;
#X msg 148 152 3;
#X msg 445 151 12;
#X obj 216 220 +;
#X msg 291 212 59;
#X text 327 217 offset for C4;
#X obj 348 188 loadbang;
#X connect 0 0 1 0;
#X connect 1 0 3 0;
#X connect 3 0 9 0;
#X connect 3 1 18 0;
#X connect 3 2 19 0;
#X connect 3 3 10 0;
#X connect 3 4 11 0;
#X connect 3 5 12 0;
#X connect 3 6 13 0;
#X connect 3 7 14 0;
#X connect 3 8 15 0;
#X connect 3 9 16 0;
#X connect 3 10 17 0;
#X connect 3 11 20 0;
#X connect 8 0 7 0;
#X connect 8 0 5 0;
#X connect 9 0 21 0;
#X connect 10 0 21 0;
#X connect 11 0 21 0;
#X connect 12 0 21 0;
#X connect 13 0 21 0;
#X connect 14 0 21 0;
#X connect 15 0 21 0;
#X connect 16 0 21 0;
#X connect 17 0 21 0;
#X connect 18 0 21 0;
#X connect 19 0 21 0;
#X connect 20 0 21 0;
#X connect 21 0 8 0;
#X connect 22 0 21 1;
#X connect 24 0 22 0;
