#N canvas 118 161 1043 386 10;
#X obj 47 48 receive fromGUI;
#X obj 47 76 list trim;
#X text 45 21 Receives the Notes;
#X obj 82 124 route /c /csharp /d /dsharp /e /f /fsharp /g /gsharp
/a /asharp /b, f 66;
#X text 90 105 Send it across the network;
#X obj 184 320 send toNetwork;
#X obj 106 294 print x1;
#X obj 176 249 list prepend /synth_midi_1;
#X msg 82 151 1;
#X msg 180 151 4;
#X msg 214 151 5;
#X msg 245 151 6;
#X msg 278 151 7;
#X msg 312 151 8;
#X msg 347 150 9;
#X msg 380 150 10;
#X msg 413 151 11;
#X msg 115 152 2;
#X msg 148 152 3;
#X msg 445 151 12;
#X obj 216 220 +;
#X msg 291 212 59;
#X text 327 217 offset for C4;
#X obj 348 188 loadbang;
#X obj 773 246 list prepend /synth_ADSR;
#X text 188 274 send message straight to multicast on user-specified
port;
#X obj 599 281 send toNetwork;
#X obj 570 122 route /chord_melody;
#X obj 773 130 route /env_drone;
#X obj 886 131 route /envelope;
#X obj 590 156 i;
#X obj 773 165 i;
#X text 251 84 MIDI NOTES;
#X text 556 86 CHORD MELODY;
#X floatatom 672 59 5 0 0 0 - - -;
#X text 570 101 comment;
#X obj 886 180 list prepend /envelope;
#X obj 492 203 list prepend /synth_chord_or_melody;
#X obj 773 212 list prepend /env_drone;
#X obj 26 200 loadbang;
#X text 3 220 Pending: Do the loadbang and last note output message
;
#X connect 0 0 1 0;
#X connect 1 0 3 0;
#X connect 1 0 27 0;
#X connect 1 0 28 0;
#X connect 1 0 29 0;
#X connect 3 0 8 0;
#X connect 3 1 17 0;
#X connect 3 2 18 0;
#X connect 3 3 9 0;
#X connect 3 4 10 0;
#X connect 3 5 11 0;
#X connect 3 6 12 0;
#X connect 3 7 13 0;
#X connect 3 8 14 0;
#X connect 3 9 15 0;
#X connect 3 10 16 0;
#X connect 3 11 19 0;
#X connect 7 0 6 0;
#X connect 7 0 5 0;
#X connect 8 0 20 0;
#X connect 9 0 20 0;
#X connect 10 0 20 0;
#X connect 11 0 20 0;
#X connect 12 0 20 0;
#X connect 13 0 20 0;
#X connect 14 0 20 0;
#X connect 15 0 20 0;
#X connect 16 0 20 0;
#X connect 17 0 20 0;
#X connect 18 0 20 0;
#X connect 19 0 20 0;
#X connect 20 0 7 0;
#X connect 21 0 20 1;
#X connect 23 0 21 0;
#X connect 24 0 26 0;
#X connect 27 0 30 0;
#X connect 28 0 31 0;
#X connect 29 0 36 0;
#X connect 30 0 37 0;
#X connect 31 0 38 0;
#X connect 36 0 24 0;
#X connect 37 0 26 0;
#X connect 38 0 24 0;
